<svg xmlns="http://www.w3.org/2000/svg" viewBox="0 0 76.05 73.04" preserveAspectRatio="xMidYMid meet">
  <path fill="#949796" d="M0,30.59,1.05,33.2A61.91,61.91,0,0,1,26.3,29.54,55.11,55.11,0,0,1,58.39,42.89c7,6.28,11.69,14.65,12.15,24.79a34.27,34.27,0,0,1-16.49-2.86,37.57,37.57,0,0,1-12.34-9.09,48.87,48.87,0,0,1-7.42-10.81l-.93.2H31.18C36,54.9,41.34,61.53,47.9,66.17A35.93,35.93,0,0,0,71.75,73c1.31-.08,2.09-.22,4.09-.43,0,0,.1-1.62.19-3.74a35.61,35.61,0,0,0-1.84-12.45,36.5,36.5,0,0,0-8.52-13.92c-6.86-7.15-18.58-14-36.41-15.79,0,0-1.62-7.67.07-19.12A44.89,44.89,0,0,1,30.76.8L28.07,0c-3,9.62-4.19,16.22-4.55,24C23.52,24,13.42,24.84,0,30.59Z"/>
</svg>
